<svg xmlns="http://www.w3.org/2000/svg" xmlns:xlink="http://www.w3.org/1999/xlink" preserveAspectRatio="xMidYMid" width="31.375" height="31.41" viewBox="0 0 31.375 31.41">
  <defs>
    <style>
      .cls-1 {
        fill: #fff;
        opacity: 0.8;
        fill-rule: evenodd;
      }
    </style>
  </defs>
  <path d="M15.677,31.391 C7.010,31.391 -0.015,24.366 -0.015,15.699 C-0.015,7.033 7.010,0.008 15.677,0.008 C24.343,0.008 31.368,7.033 31.368,15.699 C31.368,24.366 24.343,31.391 15.677,31.391 ZM20.887,16.057 C20.383,15.511 19.709,15.152 18.871,14.975 L18.871,14.903 C19.454,14.657 19.912,14.277 20.242,13.759 C20.575,13.242 20.741,12.653 20.741,11.989 C20.741,11.415 20.619,10.910 20.379,10.471 C20.139,10.035 19.774,9.682 19.288,9.420 C18.839,9.177 18.356,9.018 17.842,8.944 C17.328,8.865 16.570,8.828 15.573,8.828 L10.769,8.828 L10.769,22.425 L16.211,22.425 C17.156,22.425 17.932,22.340 18.543,22.169 C19.157,21.997 19.719,21.713 20.229,21.312 C20.663,20.975 21.005,20.555 21.261,20.044 C21.517,19.531 21.644,18.937 21.644,18.260 C21.644,17.337 21.392,16.603 20.887,16.057 ZM17.234,19.666 C16.882,19.819 16.533,19.899 16.193,19.912 C15.853,19.925 15.239,19.931 14.351,19.931 L14.167,19.931 L14.167,16.527 L14.797,16.527 C15.404,16.527 15.891,16.530 16.253,16.540 C16.614,16.548 16.900,16.592 17.106,16.674 C17.446,16.795 17.702,16.973 17.873,17.213 C18.045,17.449 18.128,17.777 18.128,18.197 C18.128,18.525 18.057,18.819 17.914,19.077 C17.770,19.336 17.546,19.531 17.234,19.666 ZM16.552,13.990 C16.302,14.105 16.059,14.168 15.825,14.180 C15.591,14.193 15.180,14.199 14.597,14.199 L14.167,14.199 L14.167,11.322 L14.404,11.322 C15.012,11.322 15.470,11.325 15.778,11.334 C16.087,11.344 16.352,11.397 16.576,11.496 C16.817,11.599 16.991,11.768 17.103,11.998 C17.215,12.229 17.272,12.454 17.272,12.675 C17.272,12.970 17.218,13.233 17.115,13.461 C17.013,13.684 16.823,13.862 16.552,13.990 Z" class="cls-1"/>
</svg>
