<svg xmlns="http://www.w3.org/2000/svg" xmlns:xlink="http://www.w3.org/1999/xlink" preserveAspectRatio="xMidYMid" width="47.375" height="47.38" viewBox="0 0 47.375 47.38">
  <defs>
    <style>
      .cls-1 {
        fill: #323232;
        fill-rule: evenodd;
      }
    </style>
  </defs>
  <path d="M23.687,47.392 C10.597,47.392 -0.014,36.779 -0.014,23.689 C-0.014,10.599 10.597,-0.012 23.687,-0.012 C36.776,-0.012 47.389,10.599 47.389,23.689 C47.389,36.779 36.776,47.392 23.687,47.392 ZM23.687,1.988 C11.721,1.988 1.986,11.723 1.986,23.689 C1.986,35.656 11.721,45.391 23.687,45.391 C35.653,45.391 45.389,35.656 45.389,23.689 C45.389,11.723 35.653,1.988 23.687,1.988 ZM31.344,31.189 L15.812,31.189 C15.365,31.189 15.002,30.827 15.002,30.380 L15.002,15.701 C15.002,13.410 15.894,11.256 17.514,9.637 C19.134,8.017 21.287,7.125 23.578,7.125 C25.868,7.125 28.022,8.017 29.641,9.637 C31.261,11.256 32.153,13.410 32.153,15.701 L32.153,30.380 C32.153,30.827 31.791,31.189 31.344,31.189 ZM30.535,19.839 C29.901,19.625 29.503,19.183 29.190,18.835 C28.820,18.425 28.639,18.242 28.244,18.240 C28.221,18.253 28.107,18.332 27.935,18.667 C27.762,19.003 27.602,19.455 27.447,19.893 C27.243,20.468 27.032,21.062 26.750,21.541 C26.325,22.259 25.781,22.623 25.131,22.623 C24.481,22.623 23.936,22.259 23.512,21.541 C23.229,21.062 23.019,20.468 22.815,19.893 C22.660,19.455 22.500,19.003 22.327,18.667 C22.154,18.333 22.042,18.253 22.018,18.240 C21.623,18.242 21.442,18.425 21.073,18.835 C20.643,19.312 20.055,19.966 18.918,19.966 C17.781,19.966 17.193,19.312 16.763,18.835 C16.712,18.778 16.665,18.726 16.621,18.679 L16.621,29.571 L30.535,29.571 L30.535,19.839 ZM25.627,38.151 C25.627,39.283 24.710,40.200 23.578,40.200 C22.446,40.200 21.529,39.283 21.529,38.151 L21.529,31.987 L25.627,31.987 L25.627,38.151 Z" class="cls-1"/>
</svg>
