<svg xmlns="http://www.w3.org/2000/svg" xmlns:xlink="http://www.w3.org/1999/xlink" preserveAspectRatio="xMidYMid" width="31.375" height="31.4" viewBox="0 0 31.375 31.4">
  <defs>
    <style>
      .cls-1 {
        fill: #fff;
        opacity: 0.8;
        fill-rule: evenodd;
      }
    </style>
  </defs>
  <path d="M15.677,31.389 C7.011,31.389 -0.015,24.363 -0.015,15.697 C-0.015,7.031 7.011,0.005 15.677,0.005 C24.343,0.005 31.369,7.031 31.369,15.697 C31.369,24.363 24.343,31.389 15.677,31.389 ZM24.324,9.374 C23.620,9.792 22.841,10.094 22.011,10.258 C21.347,9.550 20.400,9.108 19.353,9.108 C17.341,9.108 15.710,10.739 15.710,12.750 C15.710,13.035 15.743,13.313 15.805,13.580 C12.778,13.428 10.094,11.978 8.297,9.774 C7.984,10.312 7.804,10.938 7.804,11.606 C7.804,12.869 8.447,13.984 9.425,14.637 C8.827,14.618 8.266,14.454 7.775,14.182 C7.774,14.197 7.774,14.212 7.774,14.227 C7.774,15.992 9.030,17.464 10.696,17.799 C10.391,17.882 10.069,17.926 9.737,17.926 C9.502,17.926 9.274,17.904 9.051,17.861 C9.515,19.308 10.860,20.361 12.454,20.390 C11.207,21.368 9.637,21.950 7.930,21.950 C7.636,21.950 7.346,21.933 7.061,21.899 C8.673,22.932 10.588,23.535 12.645,23.535 C19.344,23.535 23.008,17.985 23.008,13.172 C23.008,13.014 23.004,12.857 22.997,12.701 C23.709,12.187 24.326,11.546 24.815,10.816 C24.161,11.105 23.460,11.301 22.723,11.389 C23.475,10.938 24.052,10.224 24.324,9.374 Z" class="cls-1"/>
</svg>
