<svg xmlns="http://www.w3.org/2000/svg" xmlns:xlink="http://www.w3.org/1999/xlink" preserveAspectRatio="xMidYMid" width="47.406" height="47.38" viewBox="0 0 47.406 47.38">
  <defs>
    <style>
      .cls-1 {
        fill: #323232;
        fill-rule: evenodd;
      }
    </style>
  </defs>
  <path d="M39.109,23.187 C38.850,23.577 38.230,24.234 36.982,24.234 C36.092,24.234 34.781,23.854 33.726,23.394 C33.955,25.915 33.453,28.786 32.150,31.737 C32.622,32.691 32.822,33.737 32.667,34.816 C32.179,38.202 28.384,40.055 24.143,40.055 C19.901,40.055 16.125,38.202 15.663,34.816 C15.539,33.909 15.667,33.024 15.993,32.199 C14.550,29.118 13.981,26.108 14.207,23.474 C13.188,23.897 11.979,24.234 11.142,24.234 C9.894,24.234 9.274,23.577 9.015,23.187 C8.588,22.541 8.530,21.735 8.853,20.973 C9.665,19.061 12.446,18.230 13.603,17.961 L13.699,17.939 C12.300,15.038 12.976,10.338 13.502,8.748 L16.559,9.001 C16.615,10.005 17.325,11.882 19.995,14.011 L21.580,15.103 C22.330,14.962 23.117,14.866 23.977,14.866 C24.795,14.866 25.547,14.955 26.266,15.083 L27.958,13.918 C30.628,11.789 31.337,9.911 31.393,8.908 L34.451,8.654 C34.979,10.253 35.658,14.996 34.227,17.893 L34.521,17.961 C35.678,18.230 38.458,19.061 39.271,20.973 C39.594,21.735 39.536,22.541 39.109,23.187 ZM14.040,19.910 C14.040,19.910 11.181,20.573 10.678,21.755 C10.176,22.938 13.833,21.624 14.513,21.063 C14.187,20.589 14.158,20.472 14.040,19.910 ZM17.337,19.978 C15.585,22.733 15.759,26.985 17.804,31.351 L18.171,32.132 L17.853,32.935 C17.642,33.469 17.572,34.012 17.645,34.546 C17.974,36.957 21.244,38.055 24.143,38.055 C27.050,38.055 30.339,36.952 30.688,34.531 C30.779,33.894 30.669,33.252 30.358,32.626 L29.942,31.786 L30.320,30.929 C32.198,26.678 32.290,22.558 30.564,19.910 C29.267,17.918 26.989,16.866 23.977,16.866 C20.927,16.866 18.631,17.942 17.337,19.978 ZM37.430,21.755 C36.927,20.572 34.069,19.909 34.069,19.909 C33.951,20.471 33.920,20.589 33.595,21.062 C34.276,21.624 37.933,22.937 37.430,21.755 ZM18.860,15.658 C18.860,15.658 15.265,13.181 15.125,10.643 C14.721,12.818 14.541,16.256 15.830,17.626 C16.474,17.303 17.490,16.221 18.860,15.658 ZM29.092,15.564 C29.092,15.564 32.687,13.088 32.828,10.549 C33.231,12.724 33.412,16.163 32.123,17.532 C31.478,17.209 30.463,16.127 29.092,15.564 ZM23.714,-0.012 C36.803,-0.012 47.416,10.599 47.416,23.689 C47.416,36.779 36.803,47.392 23.714,47.392 C10.624,47.392 0.013,36.779 0.013,23.689 C0.013,10.599 10.624,-0.012 23.714,-0.012 ZM23.714,45.391 C11.748,45.391 2.013,35.656 2.013,23.689 C2.013,11.723 11.748,1.988 23.714,1.988 C35.680,1.988 45.416,11.723 45.416,23.689 C45.416,35.656 35.680,45.391 23.714,45.391 Z" class="cls-1"/>
</svg>
