<svg xmlns="http://www.w3.org/2000/svg" xmlns:xlink="http://www.w3.org/1999/xlink" preserveAspectRatio="xMidYMid" width="31.376" height="31.41" viewBox="0 0 31.376 31.41">
  <defs>
    <style>
      .cls-1 {
        fill: #fff;
        opacity: 0.8;
        fill-rule: evenodd;
      }
    </style>
  </defs>
  <path d="M15.677,31.391 C7.011,31.391 -0.014,24.366 -0.014,15.699 C-0.014,7.033 7.011,0.008 15.677,0.008 C24.343,0.008 31.369,7.033 31.369,15.699 C31.369,24.366 24.343,31.391 15.677,31.391 ZM23.694,9.562 C23.694,8.599 22.912,7.817 21.949,7.817 L9.621,7.817 C8.658,7.817 7.876,8.599 7.876,9.562 L7.876,21.873 C7.876,22.837 8.657,23.618 9.621,23.618 L21.949,23.618 C22.912,23.618 23.694,22.837 23.694,21.873 L23.694,9.562 ZM21.372,12.683 L19.508,12.683 C19.170,12.683 18.896,12.409 18.896,12.071 L18.896,10.207 C18.896,9.869 19.170,9.596 19.508,9.596 L21.372,9.596 C21.710,9.596 21.984,9.869 21.984,10.207 L21.984,12.071 C21.984,12.409 21.710,12.683 21.372,12.683 ZM15.810,18.589 C14.242,18.589 12.972,17.318 12.972,15.750 C12.972,14.182 14.242,12.912 15.810,12.912 C17.378,12.912 18.876,14.056 18.876,15.750 C18.876,17.444 17.378,18.589 15.810,18.589 ZM15.809,20.676 C18.527,20.676 20.731,18.473 20.731,15.755 C20.731,15.328 20.676,14.912 20.574,14.517 C21.457,14.519 21.953,14.517 21.953,14.517 L21.953,21.302 C21.953,21.640 21.679,21.914 21.342,21.914 L10.277,21.914 C9.939,21.914 9.665,21.640 9.665,21.302 L9.665,14.517 C9.665,14.517 9.945,14.517 11.045,14.517 C10.942,14.913 10.888,15.328 10.888,15.755 C10.888,18.473 13.091,20.676 15.809,20.676 Z" class="cls-1"/>
</svg>
