<svg xmlns="http://www.w3.org/2000/svg" xmlns:xlink="http://www.w3.org/1999/xlink" preserveAspectRatio="xMidYMid" width="47.375" height="47.38" viewBox="0 0 47.375 47.38">
  <defs>
    <style>
      .cls-1 {
        fill: #323232;
        fill-rule: evenodd;
      }
    </style>
  </defs>
  <path d="M23.687,47.391 C10.597,47.391 -0.014,36.779 -0.014,23.689 C-0.014,10.599 10.597,-0.012 23.687,-0.012 C36.776,-0.012 47.389,10.599 47.389,23.689 C47.389,36.779 36.776,47.391 23.687,47.391 ZM23.687,1.988 C11.721,1.988 1.986,11.723 1.986,23.689 C1.986,35.656 11.721,45.391 23.687,45.391 C35.653,45.391 45.389,35.656 45.389,23.689 C45.389,11.723 35.653,1.988 23.687,1.988 ZM23.625,39.815 C23.625,39.815 1.385,29.627 23.625,7.065 C45.865,29.627 23.625,39.815 23.625,39.815 ZM22.583,11.167 C21.278,12.674 20.157,14.148 19.227,15.586 L22.583,18.214 L22.583,11.167 ZM22.583,20.666 L18.183,17.287 C17.571,18.392 17.100,19.469 16.719,20.527 L22.583,24.302 L22.583,20.666 ZM22.583,26.681 L16.131,22.527 C15.876,23.650 15.728,24.752 15.750,25.818 L22.583,30.302 L22.583,26.681 ZM22.583,32.681 L16.166,28.550 C17.272,32.693 20.483,35.476 22.583,36.886 L22.583,32.681 ZM24.583,11.070 L24.583,18.486 L28.213,15.888 C27.225,14.324 26.015,12.718 24.583,11.070 ZM29.227,17.607 L24.604,20.790 L24.583,24.470 L30.564,20.620 C30.215,19.635 29.777,18.632 29.227,17.607 ZM31.140,22.627 L24.604,26.789 L24.583,30.470 L31.477,26.062 C31.523,24.950 31.399,23.803 31.140,22.627 ZM24.604,32.789 L24.583,36.954 C26.654,35.587 29.888,32.837 31.047,28.688 L24.604,32.789 Z" class="cls-1"/>
</svg>
