<svg xmlns="http://www.w3.org/2000/svg" xmlns:xlink="http://www.w3.org/1999/xlink" preserveAspectRatio="xMidYMid" width="16.687" height="16.688" viewBox="0 0 16.687 16.688">
  <defs>
    <style>
      .cls-1 {
        fill: #fff;
        fill-rule: evenodd;
      }
    </style>
  </defs>
  <path d="M11.936,10.497 L11.178,10.497 L10.914,10.236 C11.845,9.151 12.411,7.746 12.411,6.206 C12.411,2.782 9.632,0.007 6.205,0.007 C2.777,0.007 -0.001,2.782 -0.001,6.206 C-0.001,9.629 2.777,12.404 6.205,12.404 C7.746,12.404 9.154,11.839 10.239,10.910 L10.502,11.172 L10.502,11.927 L15.275,16.688 L16.698,15.265 L11.936,10.497 ZM6.205,10.497 C3.832,10.497 1.908,8.576 1.908,6.206 C1.908,3.835 3.832,1.914 6.205,1.914 C8.578,1.914 10.501,3.835 10.501,6.206 C10.501,8.576 8.578,10.497 6.205,10.497 Z" class="cls-1"/>
</svg>
