<svg xmlns="http://www.w3.org/2000/svg" xmlns:xlink="http://www.w3.org/1999/xlink" preserveAspectRatio="xMidYMid" width="31.375" height="31.41" viewBox="0 0 31.375 31.41">
  <defs>
    <style>
      .cls-1 {
        fill: #fff;
        opacity: 0.8;
        fill-rule: evenodd;
      }
    </style>
  </defs>
  <path d="M15.677,31.391 C7.010,31.391 -0.015,24.366 -0.015,15.699 C-0.015,7.033 7.010,0.008 15.677,0.008 C24.343,0.008 31.368,7.033 31.368,15.699 C31.368,24.366 24.343,31.391 15.677,31.391 ZM19.586,6.076 L16.794,6.076 C13.500,6.076 12.712,7.622 12.712,10.418 L12.712,12.617 L10.823,12.617 L10.823,15.706 L12.712,15.706 L12.712,24.997 L16.450,24.997 L16.450,15.706 L19.193,15.706 L19.478,12.617 L16.450,12.617 L16.455,10.761 C16.455,9.867 16.540,9.505 17.822,9.505 L19.586,9.505 L19.586,6.076 Z" class="cls-1"/>
</svg>
