<svg xmlns="http://www.w3.org/2000/svg" xmlns:xlink="http://www.w3.org/1999/xlink" preserveAspectRatio="xMidYMid" width="47.406" height="47.38" viewBox="0 0 47.406 47.38">
  <defs>
    <style>
      .cls-1 {
        fill: #323232;
        fill-rule: evenodd;
      }
    </style>
  </defs>
  <path d="M23.714,47.391 C10.624,47.391 0.013,36.779 0.013,23.689 C0.013,10.599 10.624,-0.012 23.714,-0.012 C36.803,-0.012 47.416,10.599 47.416,23.689 C47.416,36.779 36.803,47.391 23.714,47.391 ZM23.714,1.988 C11.748,1.988 2.013,11.723 2.013,23.689 C2.013,35.656 11.748,45.391 23.714,45.391 C35.680,45.391 45.416,35.656 45.416,23.689 C45.416,11.723 35.680,1.988 23.714,1.988 ZM35.531,25.189 L31.531,25.189 C30.979,25.189 30.531,24.742 30.531,24.189 C30.531,23.637 30.979,23.189 31.531,23.189 L35.531,23.189 C36.083,23.189 36.531,23.637 36.531,24.189 C36.531,24.742 36.083,25.189 35.531,25.189 ZM35.531,21.189 L31.531,21.189 C30.979,21.189 30.531,20.742 30.531,20.189 C30.531,19.637 30.979,19.189 31.531,19.189 L35.531,19.189 C36.083,19.189 36.531,19.637 36.531,20.189 C36.531,20.742 36.083,21.189 35.531,21.189 ZM35.531,17.189 L31.531,17.189 C30.979,17.189 30.531,16.742 30.531,16.189 C30.531,15.637 30.979,15.189 31.531,15.189 L35.531,15.189 C36.083,15.189 36.531,15.637 36.531,16.189 C36.531,16.742 36.083,17.189 35.531,17.189 ZM35.531,13.189 L31.531,13.189 C30.979,13.189 30.531,12.742 30.531,12.189 C30.531,11.637 30.979,11.189 31.531,11.189 L35.531,11.189 C36.083,11.189 36.531,11.637 36.531,12.189 C36.531,12.742 36.083,13.189 35.531,13.189 ZM23.554,38.523 C19.804,38.523 16.731,35.484 16.731,31.749 C16.731,30.131 17.553,28.467 18.553,27.146 L18.553,12.305 C18.553,9.576 20.797,7.356 23.553,7.356 C26.310,7.356 28.553,9.576 28.553,12.305 L28.553,27.215 C29.553,28.500 30.331,30.109 30.331,31.749 C30.331,35.484 27.303,38.523 23.554,38.523 ZM26.599,28.034 L26.599,12.305 C26.599,10.679 25.225,9.356 23.599,9.356 C21.973,9.356 20.599,10.679 20.599,12.305 L20.599,27.970 C19.599,28.854 18.754,30.241 18.754,31.749 C18.754,34.382 20.922,36.523 23.554,36.523 C26.187,36.523 28.353,34.382 28.353,31.749 C28.353,30.269 27.599,28.922 26.599,28.034 ZM23.486,34.382 C21.954,34.382 20.712,33.140 20.712,31.608 C20.712,30.393 21.498,29.372 22.585,28.997 L22.585,12.165 C22.585,11.641 23.010,11.216 23.534,11.216 C24.058,11.216 24.483,11.641 24.483,12.165 L24.483,29.026 C25.521,29.428 26.260,30.429 26.260,31.608 C26.260,33.140 25.018,34.382 23.486,34.382 Z" class="cls-1"/>
</svg>
